<svg width="17" height="17" viewBox="0 0 17 17" fill="none" xmlns="http://www.w3.org/2000/svg">
<g clip-path="url(#clip0_584_253)">
<path d="M15.5916 9.44592L8.61247 9.46243L13.2714 14.0994C13.4495 14.2766 13.7418 14.2903 13.9241 14.1178C15.0598 13.0428 15.8393 11.5953 16.0652 9.9698C16.1039 9.69147 15.8725 9.44526 15.5916 9.44592ZM15.1215 7.54115C14.8708 4.02821 12.0565 1.22722 8.54244 0.993178C8.27416 0.975283 8.04881 1.20199 8.04945 1.47082L8.06502 8.05196L14.6465 8.03639C14.9153 8.03576 15.1406 7.80934 15.1215 7.54115ZM6.6566 9.46706L6.64009 2.48797C6.63942 2.20709 6.39211 1.97679 6.11427 2.01686C2.61045 2.52045 -0.0614196 5.58883 0.0719664 9.25822C0.209116 13.0267 3.46142 16.1096 7.23188 16.0533C8.71419 16.0313 10.0828 15.5504 11.207 14.7489C11.439 14.5837 11.4535 14.2416 11.2515 14.0406L6.6566 9.46706Z" fill="white"/>
</g>
<defs>
<clipPath id="clip0_584_253">
<rect width="16" height="16" fill="white" transform="translate(0.0472412 0.541504) rotate(-0.135531)"/>
</clipPath>
</defs>
</svg>
