<svg width="17" height="17" viewBox="0 0 17 17" fill="none" xmlns="http://www.w3.org/2000/svg">
<g clip-path="url(#clip0_584_261)">
<path opacity="0.4" d="M6.0534 14.7122C6.05417 14.9088 6.11275 15.1012 6.2222 15.2647L6.75816 16.0662C6.84972 16.2032 6.97373 16.3155 7.11916 16.393C7.26459 16.4705 7.42692 16.5109 7.59172 16.5105L9.52015 16.5059C9.68494 16.5055 9.84709 16.4644 9.99215 16.3862C10.1372 16.308 10.2607 16.1952 10.3516 16.0577L10.8838 15.2536C10.9924 15.0896 11.0502 14.8972 11.0499 14.7004L11.0484 13.502L6.049 13.5138L6.0534 14.7122ZM3.03095 6.02093C3.03423 7.40749 3.55129 8.67127 4.40076 9.63583C4.9184 10.2237 5.72881 11.4524 6.03908 12.4898C6.04035 12.4979 6.0413 12.506 6.04257 12.5141L11.0501 12.5023C11.0513 12.4942 11.0522 12.4864 11.0534 12.4779C11.3588 11.4391 12.1634 10.2065 12.6782 9.61625C13.5231 8.64768 14.0342 7.38147 14.0309 5.99491C14.0237 2.95148 11.5463 0.491398 8.50074 0.507977C5.31296 0.525205 3.02408 3.11375 3.03095 6.02093ZM8.52503 3.50793C7.14659 3.51119 6.02769 4.6354 6.03095 6.01383C6.0316 6.29008 5.80838 6.51436 5.53213 6.51502C5.25588 6.51567 5.0316 6.29245 5.03095 6.0162C5.02638 4.08621 6.59267 2.5125 8.52266 2.50793C8.79891 2.50728 9.02319 2.7305 9.02384 3.00675C9.02449 3.283 8.80127 3.50727 8.52503 3.50793Z" fill="#9FA2B4"/>
</g>
<defs>
<clipPath id="clip0_584_261">
<rect width="16" height="16" fill="white" transform="translate(0.517944 0.526871) rotate(-0.135531)"/>
</clipPath>
</defs>
</svg>
